<svg width="25" height="24" viewBox="0 0 25 24" fill="none" xmlns="http://www.w3.org/2000/svg">
<path d="M1 1.78571C1 1.35178 1.35178 1 1.78571 1H4.14286C4.5034 1 4.81767 1.24538 4.90511 1.59515L5.54204 4.14286H23.7857C24.0277 4.14286 24.2561 4.25433 24.405 4.44503C24.5539 4.63574 24.6067 4.88441 24.548 5.11914L22.1908 14.5477C22.1034 14.8975 21.7891 15.1429 21.4286 15.1429H7.28571C6.92518 15.1429 6.6109 14.8975 6.52346 14.5477L3.52939 2.57143H1.78571C1.35178 2.57143 1 2.21965 1 1.78571ZM5.9349 5.71429L7.89918 13.5714H20.8151L22.7794 5.71429H5.9349ZM8.85714 18.2857C7.98927 18.2857 7.28571 18.9893 7.28571 19.8571C7.28571 20.725 7.98927 21.4286 8.85714 21.4286C9.72502 21.4286 10.4286 20.725 10.4286 19.8571C10.4286 18.9893 9.72502 18.2857 8.85714 18.2857ZM5.71429 19.8571C5.71429 18.1214 7.12139 16.7143 8.85714 16.7143C10.5929 16.7143 12 18.1214 12 19.8571C12 21.5929 10.5929 23 8.85714 23C7.12139 23 5.71429 21.5929 5.71429 19.8571ZM19.8571 18.2857C18.9893 18.2857 18.2857 18.9893 18.2857 19.8571C18.2857 20.725 18.9893 21.4286 19.8571 21.4286C20.725 21.4286 21.4286 20.725 21.4286 19.8571C21.4286 18.9893 20.725 18.2857 19.8571 18.2857ZM16.7143 19.8571C16.7143 18.1214 18.1214 16.7143 19.8571 16.7143C21.5929 16.7143 23 18.1214 23 19.8571C23 21.5929 21.5929 23 19.8571 23C18.1214 23 16.7143 21.5929 16.7143 19.8571Z" fill="#121218" stroke="black" stroke-width="0.2" stroke-linejoin="round"/>
</svg>
