<svg width="28" height="27" viewBox="0 0 28 27" fill="none" xmlns="http://www.w3.org/2000/svg">
<path d="M0 1.80003C0 1.28457 0.417867 0.866699 0.933333 0.866699H3.73333C4.16161 0.866699 4.53493 1.15818 4.6388 1.57367L5.39539 4.60003H27.0667C27.3541 4.60003 27.6254 4.73244 27.8023 4.95898C27.9792 5.18551 28.0418 5.48091 27.9721 5.75973L25.1721 16.9597C25.0683 17.3752 24.6949 17.6667 24.2667 17.6667H7.46666C7.03839 17.6667 6.66507 17.3752 6.5612 16.9597L3.00461 2.73337H0.933333C0.417867 2.73337 0 2.3155 0 1.80003ZM5.86206 6.4667L8.19539 15.8H23.5379L25.8713 6.4667H5.86206ZM9.33333 21.4C8.3024 21.4 7.46666 22.2358 7.46666 23.2667C7.46666 24.2976 8.3024 25.1334 9.33333 25.1334C10.3643 25.1334 11.2 24.2976 11.2 23.2667C11.2 22.2358 10.3643 21.4 9.33333 21.4ZM5.6 23.2667C5.6 21.2048 7.27147 19.5334 9.33333 19.5334C11.3952 19.5334 13.0667 21.2048 13.0667 23.2667C13.0667 25.3286 11.3952 27 9.33333 27C7.27147 27 5.6 25.3286 5.6 23.2667ZM22.4 21.4C21.3691 21.4 20.5333 22.2358 20.5333 23.2667C20.5333 24.2976 21.3691 25.1334 22.4 25.1334C23.4309 25.1334 24.2667 24.2976 24.2667 23.2667C24.2667 22.2358 23.4309 21.4 22.4 21.4ZM18.6667 23.2667C18.6667 21.2048 20.3381 19.5334 22.4 19.5334C24.4619 19.5334 26.1333 21.2048 26.1333 23.2667C26.1333 25.3286 24.4619 27 22.4 27C20.3381 27 18.6667 25.3286 18.6667 23.2667Z" fill="white"/>
</svg>
