<svg width="28" height="28" viewBox="0 0 28 28" fill="none" xmlns="http://www.w3.org/2000/svg">
<path d="M23.2631 4.73689C20.789 2.26278 17.4989 0.9 14 0.9C10.5009 0.9 7.211 2.26279 4.73689 4.73689C2.26279 7.211 0.9 10.5009 0.9 14C0.9 17.4989 2.26278 20.789 4.73689 23.2631C7.211 25.7372 10.5009 27.1 14 27.1C17.4989 27.1 20.789 25.7372 23.2631 23.2631C25.7372 20.789 27.1 17.4989 27.1 14C27.1 10.5009 25.7372 7.211 23.2631 4.73689ZM7.62708 23.4189C8.18781 20.3682 10.8443 18.1252 14 18.1252C17.1559 18.1252 19.8122 20.3682 20.3729 23.4189C18.5536 24.6538 16.3598 25.3766 14 25.3766C11.6402 25.3766 9.44643 24.6538 7.62708 23.4189ZM9.96649 12.3683C9.96649 10.1441 11.776 8.33474 14 8.33474C16.224 8.33474 18.0335 10.1443 18.0335 12.3683C18.0335 14.5922 16.224 16.4018 14 16.4018C11.776 16.4018 9.96649 14.5922 9.96649 12.3683ZM17.2908 17.0892C18.7804 16.0479 19.7572 14.3202 19.7572 12.3683C19.7572 9.19374 17.1745 6.6113 14 6.6113C10.8255 6.6113 8.24305 9.19375 8.24305 12.3683C8.24305 14.3202 9.21977 16.0479 10.7092 17.0892C9.90649 17.4409 9.15854 17.922 8.49633 18.5214C7.38243 19.5295 6.57592 20.8102 6.14753 22.2234C3.97753 20.1503 2.62344 17.2305 2.62344 14C2.62344 7.72701 7.72701 2.62344 14 2.62344C20.273 2.62344 25.3766 7.72701 25.3766 14C25.3766 17.2307 24.0225 20.1505 21.8525 22.2236C21.4241 20.8105 20.6178 19.5297 19.5037 18.5216C18.8415 17.9222 18.0937 17.4409 17.2908 17.0892Z" fill="#121218" stroke="#121218" stroke-width="0.2"/>
</svg>
