<svg width="15" height="15" viewBox="0 0 15 15" fill="none" xmlns="http://www.w3.org/2000/svg">
<path d="M8.37456 9.71609L8.37456 9.7161C8.39679 9.72766 8.41985 9.7395 8.44338 9.75157C8.46893 9.76468 8.49505 9.77808 8.52128 9.79173L9.336 8.97959C9.62868 8.6869 9.97688 8.52776 10.3451 8.52776C10.7161 8.52776 11.0619 8.68978 11.3439 8.98311L12.8491 10.4938C12.8492 10.4938 12.8493 10.4939 12.8493 10.494C13.1425 10.7844 13.3013 11.1355 13.3013 11.5059C13.3013 11.8731 13.1458 12.2263 12.8592 12.5245C12.8592 12.5245 12.8591 12.5245 12.8591 12.5246L12.787 12.4553C12.669 12.5787 12.5483 12.6967 12.4303 12.8092L8.37456 9.71609ZM8.37456 9.71609L8.37314 9.71538C8.27349 9.66556 8.18478 9.62111 8.10997 9.57472C7.30858 9.06565 6.57861 8.40135 5.87669 7.53902C5.55792 7.13604 5.33966 6.79582 5.17922 6.45688C5.36434 6.28462 5.53858 6.10781 5.70664 5.93726C5.7263 5.91731 5.74587 5.89744 5.76537 5.87768C5.80398 5.83907 5.84254 5.79982 5.88074 5.76094L5.881 5.76067C5.91947 5.72152 5.95757 5.68274 5.99562 5.64469C6.29926 5.34105 6.45705 4.986 6.45705 4.62465C6.45705 4.26329 6.29926 3.90825 5.99562 3.6046L5.24658 2.85556C5.16131 2.7703 5.07467 2.68365 4.99365 2.59722L4.99366 2.59722L4.99256 2.59608C4.82808 2.42611 4.65404 2.24926 4.47397 2.08297C4.19183 1.80429 3.84957 1.65195 3.48572 1.65195C3.12162 1.65195 2.77386 1.80449 2.4836 2.08314L2.48358 2.08313L2.48214 2.08457L2.47666 2.09006L2.47666 2.09006L2.47634 2.09037L1.54378 3.03116L1.61449 3.10187L1.54347 3.03147L1.54362 3.03132C1.17593 3.39908 0.965453 3.84896 0.919491 4.36891H0.919489L0.919439 4.36952C0.851721 5.19342 1.0943 5.95684 1.27654 6.44832M8.37456 9.71609L12.4996 12.8813C12.4871 12.8934 12.4748 12.9054 12.4624 12.9173C12.3042 13.0703 12.1586 13.2111 12.0311 13.3648C12.0286 13.3685 12.0261 13.3716 12.024 13.3741C12.0238 13.3744 12.0235 13.3747 12.0233 13.375L12.0223 13.3769L12.0127 13.3873C11.576 13.8614 11.0167 14.1 10.356 14.1C10.2984 14.1 10.2357 14.0971 10.1784 14.0944L10.1768 14.0943C9.2159 14.0327 8.35931 13.6717 7.72587 13.3715L7.72518 13.3712C6.06039 12.5664 4.60323 11.4244 3.3926 9.97878L3.39238 9.97852C2.39603 8.7807 1.72564 7.65981 1.27654 6.44832M1.27654 6.44832L1.3703 6.41356L1.27654 6.44833C1.27654 6.44833 1.27654 6.44833 1.27654 6.44832ZM12.1904 11.8647C12.1846 11.8694 12.1787 11.8752 12.1732 11.8823C12.1726 11.8832 12.1719 11.8842 12.1711 11.8852C12.0884 11.9736 12.0042 12.0555 11.9135 12.1437C11.8928 12.1638 11.8719 12.1841 11.8505 12.205C11.8504 12.2051 11.8502 12.2053 11.8501 12.2054L11.92 12.2769M12.1904 11.8647L11.3158 12.7591M12.1904 11.8647C12.3141 11.7335 12.3645 11.6151 12.3643 11.5089C12.364 11.401 12.3113 11.2829 12.1816 11.1545L12.1813 11.1541L10.6695 9.64232L10.6694 9.6423L10.6694 9.64228L10.6694 9.64227L10.6694 9.64225L10.6694 9.64224L10.6694 9.64222L10.6693 9.64221L10.6693 9.64219L10.6693 9.64217L10.6693 9.64216L10.6693 9.64214L10.6693 9.64213L10.6693 9.64211L10.6692 9.6421L10.6692 9.64208L10.6692 9.64207L10.6692 9.64205L10.6692 9.64204L10.6692 9.64202L10.6691 9.64201L10.6691 9.64199L10.6691 9.64198L10.6691 9.64196L10.6691 9.64195L10.6691 9.64193L10.6691 9.64192L10.669 9.6419L10.669 9.64189L10.669 9.64188L10.669 9.64186L10.669 9.64185L10.669 9.64183L10.669 9.64182L10.6689 9.6418L10.6689 9.64179L10.6689 9.64178L10.6689 9.64176L10.6689 9.64175L10.6689 9.64174L10.6689 9.64172L10.6688 9.64171L10.6688 9.64169L10.6688 9.64168L10.6688 9.64167L10.6688 9.64165L10.6688 9.64164L10.6688 9.64163L10.6688 9.64161L10.6687 9.6416L10.6687 9.64159L10.6687 9.64157L10.6687 9.64156L10.6687 9.64155L10.6687 9.64153L10.6687 9.64152L10.6686 9.64151L10.6686 9.64149L10.6686 9.64148L10.6686 9.64147L10.6686 9.64146L10.6686 9.64144L10.6686 9.64143L10.6686 9.64142L10.6685 9.64141L10.6685 9.64139L10.6685 9.64138L10.6685 9.64137L10.6685 9.64136L10.6685 9.64134L10.6685 9.64133L10.6685 9.64132L10.6684 9.64131L10.6684 9.64129L10.6684 9.64128L10.6684 9.64127L10.6684 9.64126L10.6684 9.64125L10.6684 9.64123L10.6684 9.64122L10.6684 9.64121L10.6683 9.6412L10.6683 9.64119L10.6683 9.64118L10.6683 9.64116L10.6683 9.64115L10.6683 9.64114L10.6683 9.64113L10.6683 9.64112L10.6682 9.64111L10.6682 9.64109L10.6682 9.64108L10.6682 9.64107L10.6682 9.64106L10.6682 9.64105L10.6682 9.64104L10.6682 9.64103L10.6682 9.64102L10.6681 9.641L10.6681 9.64099L10.6681 9.64098L10.6681 9.64097L10.6681 9.64096L10.6681 9.64095L10.6681 9.64094L10.6681 9.64093L10.6681 9.64092L10.668 9.64091L10.668 9.6409L10.668 9.64088L10.668 9.64087L10.668 9.64086L10.668 9.64085L10.668 9.64084L10.668 9.64083L10.668 9.64082L10.668 9.64081L10.6679 9.6408L10.6679 9.64079L10.6679 9.64078L10.6679 9.64077L10.6679 9.64076L10.6679 9.64075L10.6679 9.64074L10.6679 9.64073L10.6679 9.64072L10.6678 9.64071L10.6678 9.6407L10.6678 9.64069L10.6678 9.64068L10.6678 9.64067L10.6678 9.64066L10.6678 9.64065L10.6678 9.64064L10.6678 9.64063L10.6678 9.64062L10.6677 9.64061L10.6677 9.6406L10.6677 9.64059L10.6677 9.64058L10.6677 9.64057L10.6677 9.64056L10.6677 9.64055L10.6677 9.64054L10.6677 9.64053L10.6677 9.64052L10.6677 9.64051L10.6676 9.6405L10.6676 9.64049L10.6676 9.64048L10.6676 9.64047L10.6676 9.64046L10.6676 9.64046L10.6676 9.64045L10.6676 9.64044L10.6676 9.64043L10.6676 9.64042L10.6676 9.64041L10.6675 9.6404L10.6675 9.64039L10.6675 9.64038L10.6675 9.64037L10.6675 9.64036L10.6675 9.64035L10.6675 9.64034L10.6675 9.64034L10.6675 9.64033L10.6675 9.64032L10.6674 9.64031L10.6674 9.6403L10.6674 9.64029L10.6674 9.64028L10.6674 9.64027L10.6674 9.64026L10.6674 9.64025L10.6674 9.64025L10.6674 9.64024L10.6674 9.64023L10.6674 9.64022L10.6674 9.64021L10.6673 9.6402L10.6673 9.64019L10.6673 9.64018L10.6673 9.64018L10.6673 9.64017L10.6673 9.64016L10.6673 9.64015L10.6673 9.64014L10.6673 9.64013L10.6673 9.64012L10.6673 9.64012L10.6672 9.64011L10.6672 9.6401L10.6672 9.64009L10.6672 9.64008L10.6672 9.64007L10.6672 9.64006L10.6672 9.64006L10.6672 9.64005L10.6672 9.64004L10.6672 9.64003L10.6672 9.64002L10.6672 9.64001L10.6671 9.64001L10.6671 9.64L10.6671 9.63999L10.6671 9.63998L10.6671 9.63997L10.6671 9.63996L10.6671 9.63996L10.6671 9.63995L10.6671 9.63994L10.6671 9.63993L10.6671 9.63992L10.6671 9.63991L10.667 9.63991L10.667 9.6399L10.667 9.63989L10.667 9.63988L10.667 9.63987L10.667 9.63986L10.667 9.63986L10.667 9.63985L10.667 9.63984L10.667 9.63983L10.667 9.63982L10.667 9.63982L10.6669 9.63981L10.6669 9.6398L10.6669 9.63979L10.6669 9.63978L10.6669 9.63977L10.6669 9.63977L10.6669 9.63976L10.6669 9.63975L10.6669 9.63974L10.6669 9.63973L10.6669 9.63973L10.6669 9.63972L10.6669 9.63971L10.6668 9.6397L10.6668 9.63969L10.6668 9.63969L10.6668 9.63968L10.6668 9.63967L10.6668 9.63966L10.6668 9.63965L10.6668 9.63965L10.6668 9.63964L10.6668 9.63963L10.6668 9.63962L10.6668 9.63961L10.6667 9.63961L10.6667 9.6396L10.6667 9.63959L10.6667 9.63958L10.6667 9.63957L10.6667 9.63956L10.6667 9.63956L10.6667 9.63955L10.6667 9.63954L10.6667 9.63953L10.6667 9.63952L10.6667 9.63952L10.6666 9.63951L10.6666 9.6395L10.6666 9.63949L10.6666 9.63948L10.6666 9.63948L10.6666 9.63947L10.6666 9.63946L10.6666 9.63945L10.6666 9.63944L10.6666 9.63944L10.6666 9.63943L10.6666 9.63942L10.6666 9.63941L10.6665 9.6394L10.6665 9.6394L10.6665 9.63939L10.6665 9.63938L10.6665 9.63937L10.6665 9.63936L10.6665 9.63936L10.6665 9.63935L10.6665 9.63934L10.6665 9.63933L10.6665 9.63932L10.6665 9.63931L10.6664 9.63931L10.6664 9.6393L10.6664 9.63929L10.6664 9.63928L10.6664 9.63927L10.6664 9.63927L10.6664 9.63926L10.6664 9.63925L10.6664 9.63924L10.6664 9.63923L10.6664 9.63922L10.6664 9.63922L10.6663 9.63921L10.6663 9.6392L10.6663 9.63919L10.6663 9.63918L10.6663 9.63917L10.6663 9.63917L10.6663 9.63916L10.6663 9.63915L10.6663 9.63914L10.6663 9.63913L10.6663 9.63912L10.6663 9.63912L10.6662 9.63911L10.6662 9.6391L10.6662 9.63909L10.6662 9.63908L10.6662 9.63907L10.6662 9.63906L10.6662 9.63906L10.6662 9.63905L10.6662 9.63904L10.6662 9.63903L10.6662 9.63902L10.6662 9.63901L10.6661 9.63901L10.6661 9.639L10.6661 9.63899L10.6661 9.63898L10.6661 9.63897L10.6661 9.63896L10.6661 9.63895L10.6661 9.63894L10.6661 9.63894L10.6661 9.63893L10.6661 9.63892L10.666 9.63891L10.666 9.6389L10.666 9.63889L10.666 9.63888L10.666 9.63887L10.666 9.63886L10.666 9.63886L10.666 9.63885L10.666 9.63884L10.666 9.63883L10.666 9.63882L10.666 9.63881L10.6659 9.6388L10.6659 9.63879L10.6659 9.63878L10.6659 9.63877L10.6659 9.63877L10.6659 9.63876L10.6659 9.63875L10.6659 9.63874L10.6659 9.63873L10.6659 9.63872L10.6659 9.63871L10.6658 9.6387L10.6658 9.63869L10.6658 9.63868L10.6658 9.63867L10.6658 9.63866L10.6658 9.63865L10.6658 9.63864L10.6658 9.63863L10.6658 9.63863L10.6658 9.63862L10.6657 9.63861L10.6657 9.6386L10.6657 9.63859L10.6657 9.63858L10.6657 9.63857L10.6657 9.63856L10.6657 9.63855L10.6657 9.63854L10.6657 9.63853L10.6657 9.63852L10.6656 9.63851L10.6656 9.6385L10.6656 9.63849L10.6656 9.63848L10.6656 9.63847L10.6656 9.63846L10.6656 9.63845L10.6656 9.63844L10.6656 9.63843L10.6656 9.63842L10.6655 9.63841L10.6655 9.6384L10.6655 9.63839L10.6655 9.63838L10.6655 9.63837L10.6655 9.63836L10.6655 9.63835L10.6655 9.63834L10.6655 9.63833L10.6655 9.63831L10.6654 9.6383L10.6654 9.63829L10.6654 9.63828L10.6654 9.63827L10.6654 9.63826L10.6654 9.63825L10.6654 9.63824L10.6654 9.63823L10.6654 9.63822L10.6653 9.63821L10.6653 9.6382L10.6653 9.63819L10.6653 9.63818L10.6653 9.63816L10.6653 9.63815L10.6653 9.63814L10.6653 9.63813L10.6653 9.63812L10.6652 9.63811L10.6652 9.6381L10.6652 9.63809L10.6652 9.63807L10.6652 9.63806L10.6652 9.63805L10.6652 9.63804L10.6652 9.63803L10.6652 9.63802L10.6651 9.63801L10.6651 9.63799L10.6651 9.63798L10.6651 9.63797L10.6651 9.63796L10.6651 9.63795L10.6651 9.63794L10.6651 9.63792L10.6651 9.63791L10.665 9.6379L10.665 9.63789L10.665 9.63788L10.665 9.63786L10.665 9.63785L10.665 9.63784L10.665 9.63783L10.665 9.63781L10.6649 9.6378L10.6649 9.63779L10.6649 9.63778L10.6649 9.63777L10.6649 9.63775L10.6649 9.63774L10.6649 9.63773L10.6649 9.63772L10.6648 9.6377L10.6648 9.63769L10.6648 9.63768L10.6648 9.63766L10.6648 9.63765L10.6648 9.63764L10.6648 9.63763L10.6648 9.63761L10.6647 9.6376L10.6647 9.63759L10.6647 9.63757L10.6647 9.63756L10.6647 9.63755L10.6647 9.63753L10.6647 9.63752L10.6646 9.63751L10.6646 9.63749L10.6646 9.63748L10.6646 9.63747L10.6646 9.63745L10.6646 9.63744L10.6646 9.63742L10.6646 9.63741L10.6645 9.6374L10.6645 9.63738L10.6645 9.63737L10.6645 9.63736L10.6645 9.63734L10.6645 9.63733L10.6645 9.63731L10.6644 9.6373L10.6644 9.63728L10.6644 9.63727L10.6644 9.63726L10.6644 9.63724L10.6644 9.63723L10.6644 9.63721L10.6643 9.6372L10.6643 9.63718L10.6643 9.63717L10.6643 9.63715L10.6643 9.63714L10.6643 9.63712L10.6642 9.63711L10.6642 9.63709L10.6642 9.63708L10.6642 9.63706L10.6642 9.63705L10.6642 9.63703L10.6642 9.63702L10.6641 9.637L10.6641 9.63699L10.6641 9.63697L10.6641 9.63696L10.6641 9.63694L10.6641 9.63692L10.6641 9.63691L10.664 9.63689L10.664 9.63688L10.664 9.63686L10.664 9.63685L10.664 9.63683L10.6607 9.63357L10.6608 9.63349C10.5831 9.54828 10.468 9.46583 10.3396 9.46583C10.2082 9.46583 10.0848 9.5535 9.99599 9.64232L9.05763 10.5807L9.05654 10.5818C9.00674 10.6316 8.83909 10.7993 8.56987 10.7993C8.46182 10.7993 8.3588 10.7728 8.25352 10.7201C8.24366 10.7152 8.23459 10.7095 8.22968 10.7064L8.22878 10.7059L8.22249 10.702C8.22113 10.7012 8.22058 10.7009 8.22058 10.7009L8.21236 10.6968L8.21258 10.6964C8.13768 10.65 8.04881 10.6054 7.94896 10.5555L7.94714 10.5546C7.83848 10.5003 7.71944 10.4407 7.60265 10.3667C6.71274 9.80389 5.90746 9.07038 5.1454 8.13235L5.13791 8.12486L5.13846 8.12442C4.71763 7.59008 4.43769 7.13763 4.23836 6.65476L4.2357 6.6483L4.23593 6.64822L4.23181 6.63588L4.2277 6.62353L4.22719 6.62202L4.22721 6.62202C4.20104 6.53917 4.17279 6.42641 4.18756 6.29883C4.2024 6.17063 4.25963 6.03578 4.38821 5.90474C4.39561 5.89527 4.40267 5.88914 4.40599 5.88629L4.40936 5.88347L4.40973 5.88316L4.4121 5.88079L4.4122 5.8809C4.64837 5.66916 4.86601 5.45158 5.0961 5.21601L5.09815 5.21392L5.09818 5.21395C5.15032 5.1636 5.2006 5.11274 5.25219 5.06053C5.2786 5.03381 5.30536 5.00675 5.33289 4.97922C5.4688 4.8433 5.52172 4.72734 5.52172 4.62465C5.52172 4.52195 5.4688 4.40599 5.33289 4.27008L4.58385 3.52104L4.58276 3.51995L4.58277 3.51994C4.53945 3.47528 4.4961 3.43124 4.45278 3.38723L4.45194 3.38638C4.40843 3.34219 4.36493 3.298 4.32208 3.25376L4.32206 3.25375C4.15488 3.08109 3.99719 2.92071 3.83175 2.76612L3.82928 2.76381L3.82932 2.76377L3.8252 2.75965L3.82109 2.75553C3.73951 2.67395 3.62394 2.59276 3.49121 2.59276C3.38533 2.59276 3.26633 2.64469 3.14373 2.75942L2.20926 3.69389C1.99829 3.90486 1.88503 4.1489 1.85956 4.44641M12.1904 11.8647L1.85956 4.44641M11.92 12.2769C11.7416 12.447 11.5605 12.6254 11.3904 12.8257M11.92 12.2769C11.9411 12.2563 11.9619 12.2361 11.9825 12.216C12.052 12.1485 12.1188 12.0835 12.1842 12.0163L11.92 12.2769ZM11.3904 12.8257L11.3174 12.7574C11.3169 12.7579 11.3163 12.7585 11.3158 12.7591M11.3904 12.8257L11.3142 12.7609C11.3147 12.7603 11.3153 12.7597 11.3158 12.7591M11.3904 12.8257C11.1133 13.122 10.7868 13.2619 10.3588 13.2619C10.3176 13.2619 10.2737 13.2619 10.2326 13.2592C9.41769 13.2071 8.66041 12.8888 8.09246 12.6172M11.3158 12.7591C11.0588 13.0332 10.7595 13.1619 10.3588 13.1619C10.317 13.1619 10.2765 13.1619 10.2392 13.1594L10.239 13.1594C9.44422 13.1086 8.70146 12.7976 8.13575 12.527M8.09246 12.6172L8.13603 12.5271C8.13594 12.5271 8.13585 12.5271 8.13575 12.527M8.09246 12.6172L8.13561 12.5269C8.13565 12.527 8.1357 12.527 8.13575 12.527M8.09246 12.6172C6.53951 11.8654 5.17587 10.7981 4.0427 9.44539L8.13575 12.527M8.13575 12.527C6.59597 11.7816 5.24368 10.7232 4.1195 9.38134C3.18963 8.26056 2.57059 7.22766 2.16099 6.12094L2.16089 6.12066C1.9089 5.44599 1.82004 4.92904 1.85956 4.44641M8.13575 12.527L1.85956 4.44641M12.2547 11.9422V11.8434C12.2632 11.8436 12.2726 11.8448 12.2826 11.848C12.2948 11.8518 12.3078 11.8585 12.3194 11.8688C12.2998 11.8933 12.2783 11.9177 12.2547 11.9422ZM4.41062 5.88243L4.41062 5.88243L4.41062 5.88243Z" fill="#AE271E" stroke="#AE271E" stroke-width="0.2"/>
<path d="M11.3395 7.36885L11.3395 7.36891L11.3431 7.36833C11.6022 7.32631 11.7719 7.08154 11.7304 6.82559L11.7302 6.8248C11.5786 5.93442 11.1571 5.12269 10.5143 4.47986C9.8715 3.83704 9.05977 3.41563 8.16939 3.26395L8.16939 3.26395L8.1686 3.26382C7.91196 3.22221 7.67142 3.39243 7.62612 3.64681C7.58108 3.89975 7.74715 4.14867 8.00733 4.19103C8.70514 4.30827 9.33925 4.63848 9.8461 5.14534C10.3528 5.65201 10.6805 6.28615 10.8005 6.98447C10.839 7.21522 11.0384 7.37511 11.264 7.37511C11.2904 7.37511 11.3143 7.37206 11.333 7.36967C11.3353 7.36938 11.3374 7.36911 11.3395 7.36885Z" fill="#AE271E" stroke="#AE271E" stroke-width="0.2"/>
<path d="M7.73072 1.28993L7.73071 1.28993L7.73046 1.29146C7.68878 1.54852 7.85951 1.78885 8.11643 1.83398L8.11643 1.83398L8.11702 1.83408C9.3748 2.04731 10.5221 2.64375 11.4351 3.55399C12.3479 4.4668 12.9417 5.61401 13.1549 6.87188C13.1935 7.10268 13.3929 7.26261 13.6185 7.26261C13.6449 7.26261 13.6688 7.25956 13.6875 7.25717C13.6897 7.25688 13.6919 7.25661 13.694 7.25635L13.694 7.25638L13.6965 7.256C13.9526 7.21741 14.127 6.97278 14.082 6.71777C13.8343 5.26497 13.1495 3.9429 12.0978 2.89123C11.0462 1.83965 9.72429 1.15489 8.27162 0.907139C8.01505 0.861653 7.77569 1.03746 7.73072 1.28993Z" fill="#AE271E" stroke="#AE271E" stroke-width="0.2"/>
</svg>
