<svg width="13" height="13" viewBox="0 0 13 13" fill="none" xmlns="http://www.w3.org/2000/svg">
<g clip-path="url(#clip0_2486_12709)">
<path d="M6.5 0C2.9159 0 0 2.9159 0 6.5C0 10.0841 2.9159 13 6.5 13C10.0841 13 13 10.0841 13 6.5C13 2.9159 10.0841 0 6.5 0ZM6.5 11.6169C3.67856 11.6169 1.38296 9.32157 1.38296 6.5C1.38296 3.67843 3.67856 1.38309 6.5 1.38309C9.32144 1.38309 11.617 3.67843 11.617 6.5C11.617 9.32157 9.32144 11.6169 6.5 11.6169Z" fill="#AE271E"/>
<path d="M9.88605 6.29931H6.96493V2.78706C6.96493 2.4915 6.72529 2.25186 6.42973 2.25186C6.13417 2.25186 5.89453 2.4915 5.89453 2.78706V6.83451C5.89453 7.13008 6.13417 7.36971 6.42973 7.36971H9.88605C10.1816 7.36971 10.4212 7.13008 10.4212 6.83451C10.4212 6.53895 10.1816 6.29931 9.88605 6.29931Z" fill="#AE271E"/>
</g>
<defs>
<clipPath id="clip0_2486_12709">
<rect width="13" height="13" fill="white"/>
</clipPath>
</defs>
</svg>
