<svg width="26" height="26" viewBox="0 0 26 26" fill="none" xmlns="http://www.w3.org/2000/svg">
<g opacity="0.5">
<path d="M13 24.375C6.71776 24.375 1.625 19.2822 1.625 13C1.625 6.71776 6.71776 1.625 13 1.625C19.2822 1.625 24.375 6.71776 24.375 13C24.375 19.2822 19.2822 24.375 13 24.375ZM13 26C20.1797 26 26 20.1797 26 13C26 5.8203 20.1797 0 13 0C5.8203 0 0 5.8203 0 13C0 20.1797 5.8203 26 13 26Z" fill="#121218"/>
<path d="M7.55048 7.55048C7.86778 7.23317 8.38222 7.23317 8.69952 7.55048L13 11.851L17.3005 7.55048C17.6178 7.23317 18.1322 7.23317 18.4495 7.55048C18.7668 7.86778 18.7668 8.38222 18.4495 8.69952L14.149 13L18.4495 17.3005C18.7668 17.6178 18.7668 18.1322 18.4495 18.4495C18.1322 18.7668 17.6178 18.7668 17.3005 18.4495L13 14.149L8.69952 18.4495C8.38222 18.7668 7.86778 18.7668 7.55048 18.4495C7.23317 18.1322 7.23317 17.6178 7.55048 17.3005L11.851 13L7.55048 8.69952C7.23317 8.38222 7.23317 7.86778 7.55048 7.55048Z" fill="#121218"/>
</g>
</svg>
