<svg width="14" height="14" viewBox="0 0 14 14" fill="none" xmlns="http://www.w3.org/2000/svg">
<path d="M11.9366 1.72696L11.9366 1.72703C13.1155 2.81116 13.6996 4.11987 13.6996 5.65322C13.6996 6.8652 13.34 7.89605 12.626 8.74872L12.6259 8.74884C11.9116 9.60435 11.0716 10.0239 10.1021 10.0239C9.45007 10.0239 8.96649 9.77585 8.63628 9.27927L8.56273 9.16866L8.47677 9.26993C8.02801 9.79864 7.49566 10.0587 6.87283 10.0587C6.17247 10.0587 5.5734 9.76661 5.06854 9.16595L5.0684 9.16579C4.5655 8.57004 4.31076 7.77885 4.31076 6.78761C4.31076 5.77479 4.59619 4.95465 5.16538 4.32078L5.16553 4.32061C5.73396 3.6847 6.41383 3.3694 7.20726 3.3694C7.70115 3.3694 8.15813 3.53931 8.57808 3.88197L8.69699 3.979L8.73771 3.83102L8.82719 3.50585H10.3503L9.86638 7.46306L9.86637 7.46306L9.8662 7.46468C9.83657 7.74482 9.82016 7.98942 9.82016 8.20025C9.82016 8.34092 9.85258 8.46487 9.93527 8.55367C10.0192 8.64382 10.1384 8.68016 10.2733 8.68016C10.7558 8.68016 11.2019 8.37759 11.614 7.81543C12.0331 7.24641 12.2408 6.53413 12.2408 5.69068C12.2408 4.45362 11.7877 3.42318 10.8835 2.60658C9.98067 1.79134 8.87263 1.38487 7.56844 1.38487C6.15104 1.38487 4.95064 1.88212 3.97893 2.8702C3.0042 3.86132 2.51619 5.09635 2.51619 6.5709C2.51619 7.93063 2.97212 9.11829 3.87958 10.1266L3.87959 10.1266C4.79626 11.1448 6.08607 11.6472 7.73432 11.6472C8.77161 11.6472 9.83374 11.4137 10.9146 10.9489C11.2787 10.794 11.6948 10.9633 11.842 11.3278L11.8421 11.3278C11.9844 11.6803 11.8144 12.0835 11.4621 12.2338L11.462 12.2339C10.2432 12.7558 9.00176 13.015 7.737 13.015C5.63719 13.015 3.97937 12.3778 2.74675 11.111C1.51535 9.83998 0.899561 8.32655 0.899561 6.56287C0.899561 4.72194 1.54711 3.18853 2.84044 1.95315C4.13485 0.716733 5.70176 0.1 7.54436 0.1C9.29829 0.1 10.7609 0.643341 11.9366 1.72696ZM8.14098 7.86929L8.14116 7.86904C8.4565 7.44209 8.61545 6.95579 8.61823 6.40821V6.4077C8.61823 5.9643 8.48843 5.60044 8.22085 5.32414C7.95816 5.05288 7.65215 4.91379 7.30625 4.91379C6.90497 4.91379 6.57196 5.10504 6.31048 5.46315C6.04838 5.82213 5.92203 6.2889 5.92203 6.8545C5.92203 7.3141 6.01285 7.7046 6.20059 8.02333C6.38795 8.34599 6.64734 8.52231 6.97717 8.52231C7.4359 8.52231 7.82444 8.29509 8.14098 7.86929Z" fill="#AE271E" stroke="#AE271E" stroke-width="0.2"/>
</svg>
