<svg width="33" height="33" viewBox="0 0 33 33" fill="none" xmlns="http://www.w3.org/2000/svg">
<circle opacity="0.2" cx="16.4655" cy="16.4655" r="16.4655" fill="#8695AD"/>
<path d="M18.9118 16.9167C18.9118 15.673 17.8974 14.6586 16.6537 14.6586C15.4099 14.6586 14.3955 15.673 14.3955 16.9167C14.3955 18.1604 15.4099 19.1748 16.6537 19.1748C17.8974 19.1748 18.9118 18.1604 18.9118 16.9167ZM20.1291 16.9167C20.1291 18.8396 18.5766 20.3921 16.6537 20.3921C14.7307 20.3921 13.1783 18.8396 13.1783 16.9167C13.1783 14.9938 14.7307 13.4413 16.6537 13.4413C18.5766 13.4413 20.1291 14.9938 20.1291 16.9167ZM21.0817 13.3002C21.0817 13.75 20.7201 14.1117 20.2702 14.1117C19.8203 14.1117 19.4587 13.75 19.4587 13.3002C19.4587 12.8503 19.8203 12.4886 20.2702 12.4886C20.7201 12.4886 21.0817 12.8503 21.0817 13.3002ZM16.6537 11.3596C15.6657 11.3596 13.5487 11.2802 12.6578 11.633C12.3491 11.7565 12.1198 11.9065 11.8816 12.1446C11.6434 12.3828 11.4935 12.6121 11.37 12.9209C11.0172 13.8118 11.0965 15.9288 11.0965 16.9167C11.0965 17.9046 11.0172 20.0216 11.37 20.9125C11.4935 21.2212 11.6434 21.4506 11.8816 21.6888C12.1198 21.9269 12.3491 22.0769 12.6578 22.2004C13.5487 22.5532 15.6657 22.4738 16.6537 22.4738C17.6416 22.4738 19.7586 22.5532 20.6495 22.2004C20.9582 22.0769 21.1876 21.9269 21.4257 21.6888C21.6639 21.4506 21.8138 21.2212 21.9373 20.9125C22.2902 20.0216 22.2108 17.9046 22.2108 16.9167C22.2108 15.9288 22.2902 13.8118 21.9373 12.9209C21.8138 12.6121 21.6639 12.3828 21.4257 12.1446C21.1876 11.9065 20.9582 11.7565 20.6495 11.633C19.7586 11.2802 17.6416 11.3596 16.6537 11.3596ZM23.428 16.9167C23.428 17.8517 23.4369 18.7779 23.3839 19.7129C23.331 20.7978 23.084 21.7593 22.2902 22.5532C21.4963 23.3471 20.5348 23.594 19.4499 23.647C18.5148 23.6999 17.5887 23.6911 16.6537 23.6911C15.7187 23.6911 14.7925 23.6999 13.8575 23.647C12.7725 23.594 11.811 23.3471 11.0172 22.5532C10.2233 21.7593 9.9763 20.7978 9.92338 19.7129C9.87045 18.7779 9.87927 17.8517 9.87927 16.9167C9.87927 15.9817 9.87045 15.0555 9.92338 14.1205C9.9763 13.0355 10.2233 12.0741 11.0172 11.2802C11.811 10.4863 12.7725 10.2393 13.8575 10.1864C14.7925 10.1335 15.7187 10.1423 16.6537 10.1423C17.5887 10.1423 18.5148 10.1335 19.4499 10.1864C20.5348 10.2393 21.4963 10.4863 22.2902 11.2802C23.084 12.0741 23.331 13.0355 23.3839 14.1205C23.4369 15.0555 23.428 15.9817 23.428 16.9167Z" fill="white"/>
</svg>
