<svg width="12" height="18" viewBox="0 0 12 18" fill="none" xmlns="http://www.w3.org/2000/svg">
<path d="M8.57143 6C8.57143 4.42634 7.28795 3.14286 5.71429 3.14286C4.14063 3.14286 2.85714 4.42634 2.85714 6C2.85714 7.57366 4.14063 8.85714 5.71429 8.85714C7.28795 8.85714 8.57143 7.57366 8.57143 6ZM11.4286 6C11.4286 6.6808 11.3504 7.38393 11.0603 7.99777L6.99777 16.6362C6.76339 17.1272 6.25 17.4286 5.71429 17.4286C5.17857 17.4286 4.66518 17.1272 4.44196 16.6362L0.368304 7.99777C0.078125 7.38393 0 6.6808 0 6C0 2.84152 2.5558 0.285713 5.71429 0.285713C8.87277 0.285713 11.4286 2.84152 11.4286 6Z" fill="white"/>
</svg>
