<svg width="10" height="16" viewBox="0 0 10 16" fill="none" xmlns="http://www.w3.org/2000/svg">
<path d="M7.28571 5.5C7.28571 4.16239 6.19475 3.07143 4.85714 3.07143C3.51953 3.07143 2.42857 4.16239 2.42857 5.5C2.42857 6.83761 3.51953 7.92857 4.85714 7.92857C6.19475 7.92857 7.28571 6.83761 7.28571 5.5ZM9.71429 5.5C9.71429 6.07868 9.64788 6.67634 9.40123 7.1981L5.9481 14.5407C5.74888 14.9581 5.3125 15.2143 4.85714 15.2143C4.40179 15.2143 3.9654 14.9581 3.77567 14.5407L0.313058 7.1981C0.0664062 6.67634 0 6.07868 0 5.5C0 2.81529 2.17243 0.642856 4.85714 0.642856C7.54185 0.642856 9.71429 2.81529 9.71429 5.5Z" fill="#AE271E"/>
</svg>
