<svg width="16" height="22" viewBox="0 0 16 22" fill="none" xmlns="http://www.w3.org/2000/svg">
<path d="M7.85392 20.8682C7.67276 20.6597 7.45355 20.4032 7.20596 20.1057C6.47935 19.2326 5.51182 18.01 4.54584 16.6103C3.57838 15.2084 2.62206 13.6427 1.90997 12.0825C1.19347 10.5126 0.75 9.00354 0.75 7.7C0.75 3.83843 3.87945 0.75 7.85714 0.75C11.8348 0.75 14.9643 3.83843 14.9643 7.7C14.9643 8.97429 14.522 10.4687 13.8047 12.0353C13.0923 13.5912 12.1355 15.161 11.1675 16.5704C10.201 17.9775 9.23304 19.2109 8.50606 20.093C8.25661 20.3957 8.03593 20.6565 7.85392 20.8682ZM5.08673 7.7C5.08673 8.48701 5.18714 9.26761 5.73622 9.79872C6.27732 10.3221 7.0626 10.4143 7.85714 10.4143C8.65168 10.4143 9.43697 10.3221 9.97807 9.79872C10.5271 9.26761 10.6276 8.48701 10.6276 7.7C10.6276 6.91299 10.5271 6.13239 9.97807 5.60128C9.43697 5.07789 8.65168 4.98571 7.85714 4.98571C7.0626 4.98571 6.27732 5.07789 5.73622 5.60128C5.18714 6.13239 5.08673 6.91299 5.08673 7.7Z" stroke="#121218" stroke-width="1.5"/>
</svg>
