<svg width="64" height="75" viewBox="0 0 64 75" fill="none" xmlns="http://www.w3.org/2000/svg">
<g filter="url(#filter0_d_2490_12788)">
<g filter="url(#filter1_d_2490_12788)">
<path d="M31.7712 12C23.1696 12 16.1719 18.9394 16.1719 27.4683C16.1719 35.678 30.3254 49.2875 30.9281 50.0997L31.4905 50.8586C31.5563 50.9478 31.661 51 31.7712 51C31.8831 51 31.9872 50.9478 32.0536 50.8586L32.6157 50.0997C33.2187 49.2875 47.3719 35.678 47.3719 27.4683C47.3719 18.9394 40.373 12 31.7712 12ZM31.7712 21.9276C34.8532 21.9276 37.3593 24.4126 37.3593 27.4683C37.3593 30.5224 34.8531 33.009 31.7712 33.009C28.691 33.009 26.1831 30.5224 26.1831 27.4683C26.1831 24.4126 28.6909 21.9276 31.7712 21.9276Z" fill="#AE271E"/>
<path d="M34.1969 51.3251C34.2022 51.32 34.2415 51.2749 34.3417 51.1678C34.4699 51.0306 34.645 50.8471 34.8696 50.6117L34.9154 50.5638C35.3554 50.1028 35.9489 49.4811 36.6405 48.7372C38.0711 47.1984 39.9336 45.1241 41.7834 42.8053C43.6272 40.4938 45.4925 37.8971 46.9057 35.3134C48.2932 32.7768 49.3719 30.0278 49.3719 27.4683C49.3719 17.8188 41.4614 10 31.7712 10C22.081 10 14.1719 17.819 14.1719 27.4683C14.1719 30.0279 15.2506 32.7768 16.6381 35.3135C18.0513 37.8971 19.9166 40.4938 21.7605 42.8053C23.6103 45.1241 25.4728 47.1984 26.9034 48.7372C27.5943 49.4803 28.1872 50.1015 28.6271 50.5624L28.6742 50.6117C28.8988 50.847 29.0738 51.0306 29.202 51.1677C29.3026 51.2753 29.3418 51.3202 29.3468 51.325L29.8807 52.0455C29.8814 52.0464 29.8821 52.0473 29.8827 52.0482L34.1969 51.3251ZM33.0973 49.6678L33.0969 49.6672C33.098 49.6687 33.0991 49.6702 33.1002 49.6717L33.0973 49.6678ZM31.7712 23.9276C33.7647 23.9276 35.3593 25.5331 35.3593 27.4683C35.3593 29.4022 33.7642 31.009 31.7712 31.009C29.7795 31.009 28.1831 29.4018 28.1831 27.4683C28.1831 25.5335 29.779 23.9276 31.7712 23.9276Z" stroke="white" stroke-width="4"/>
</g>
</g>
<defs>
<filter id="filter0_d_2490_12788" x="0.171875" y="0" width="63.1992" height="71" filterUnits="userSpaceOnUse" color-interpolation-filters="sRGB">
<feFlood flood-opacity="0" result="BackgroundImageFix"/>
<feColorMatrix in="SourceAlpha" type="matrix" values="0 0 0 0 0 0 0 0 0 0 0 0 0 0 0 0 0 0 127 0" result="hardAlpha"/>
<feOffset dy="4"/>
<feGaussianBlur stdDeviation="6"/>
<feComposite in2="hardAlpha" operator="out"/>
<feColorMatrix type="matrix" values="0 0 0 0 0 0 0 0 0 0 0 0 0 0 0 0 0 0 0.25 0"/>
<feBlend mode="normal" in2="BackgroundImageFix" result="effect1_dropShadow_2490_12788"/>
<feBlend mode="normal" in="SourceGraphic" in2="effect1_dropShadow_2490_12788" result="shape"/>
</filter>
<filter id="filter1_d_2490_12788" x="0.171875" y="4" width="63.1992" height="71" filterUnits="userSpaceOnUse" color-interpolation-filters="sRGB">
<feFlood flood-opacity="0" result="BackgroundImageFix"/>
<feColorMatrix in="SourceAlpha" type="matrix" values="0 0 0 0 0 0 0 0 0 0 0 0 0 0 0 0 0 0 127 0" result="hardAlpha"/>
<feOffset dy="8"/>
<feGaussianBlur stdDeviation="6"/>
<feColorMatrix type="matrix" values="0 0 0 0 0 0 0 0 0 0 0 0 0 0 0 0 0 0 0.1 0"/>
<feBlend mode="normal" in2="BackgroundImageFix" result="effect1_dropShadow_2490_12788"/>
<feBlend mode="normal" in="SourceGraphic" in2="effect1_dropShadow_2490_12788" result="shape"/>
</filter>
</defs>
</svg>
