<svg width="34" height="33" viewBox="0 0 34 33" fill="none" xmlns="http://www.w3.org/2000/svg">
<circle opacity="0.2" cx="17.3276" cy="16.4655" r="16.4655" fill="#8695AD"/>
<path d="M17.0453 17.0137C14.8401 17.0137 13.0407 15.2231 13.0407 13.0179C13.0407 10.8039 14.8401 9.01324 17.0453 9.01324C19.2505 9.01324 21.05 10.8039 21.05 13.0179C21.05 15.2231 19.2505 17.0137 17.0453 17.0137ZM17.0453 11.042C15.9604 11.042 15.0783 11.9241 15.0783 13.0179C15.0783 14.1029 15.9604 14.9849 17.0453 14.9849C18.1303 14.9849 19.0124 14.1029 19.0124 13.0179C19.0124 11.9241 18.1303 11.042 17.0453 11.042ZM21.6586 17.4989C22.0467 18.2927 21.6057 18.672 20.6001 19.3248C19.7533 19.8628 18.589 20.0745 17.8216 20.1539L18.4655 20.789L20.8207 23.1442C21.1735 23.5058 21.1735 24.088 20.8207 24.4408L20.7148 24.5555C20.3531 24.9083 19.771 24.9083 19.4093 24.5555C18.8183 23.9557 17.9539 23.0913 17.0542 22.1915L14.699 24.5555C14.3374 24.9083 13.7552 24.9083 13.4023 24.5555L13.2965 24.4408C12.9348 24.088 12.9348 23.5058 13.2965 23.1442C13.8963 22.5444 14.7519 21.6799 15.6517 20.789L16.2868 20.1539C15.5282 20.0745 14.3462 19.8717 13.4906 19.3248C12.485 18.672 12.0439 18.2927 12.4321 17.4989C12.6614 17.049 13.2877 16.6697 14.1168 17.3224C14.1168 17.3224 15.2371 18.2134 17.0453 18.2134C18.8536 18.2134 19.9739 17.3224 19.9739 17.3224C20.803 16.6697 21.4293 17.049 21.6586 17.4989Z" fill="white"/>
</svg>
