<svg width="38" height="38" viewBox="0 0 38 38" fill="none" xmlns="http://www.w3.org/2000/svg">
<circle opacity="0.5" cx="19" cy="19" r="19" fill="#8695AD"/>
<path d="M16.592 21.408V22.824H21.92V24.192H16.592V27H14.168V24.192H11.72V22.824H14.168V10.2H20.768C22.96 10.2 24.672 10.688 25.904 11.664C27.136 12.624 27.752 14 27.752 15.792C27.752 17.6 27.136 18.992 25.904 19.968C24.672 20.928 22.96 21.408 20.768 21.408H16.592ZM25.328 15.816C25.328 14.68 24.936 13.808 24.152 13.2C23.368 12.592 22.24 12.288 20.768 12.288H16.592V19.416H20.768C22.224 19.416 23.344 19.104 24.128 18.48C24.928 17.84 25.328 16.952 25.328 15.816Z" fill="white"/>
</svg>
