<svg width="15" height="15" viewBox="0 0 15 15" fill="none" xmlns="http://www.w3.org/2000/svg">
<path d="M14.1429 11.9599C14.1429 12.3215 13.9821 13.0246 13.8315 13.3561C13.6205 13.8483 13.058 14.1697 12.606 14.4208C12.0134 14.7423 11.4107 14.9331 10.7377 14.9331C9.80357 14.9331 8.95982 14.5514 8.10603 14.24C7.4933 14.019 6.90067 13.7478 6.34821 13.4063C4.64062 12.3516 2.58147 10.2925 1.52679 8.58489C1.18527 8.03244 0.914063 7.4398 0.69308 6.82708C0.381696 5.97328 0 5.12953 0 4.19538C0 3.52239 0.190848 2.91971 0.512277 2.32708C0.763393 1.87507 1.08482 1.31257 1.57701 1.10163C1.90848 0.950962 2.61161 0.790248 2.97321 0.790248C3.04353 0.790248 3.11384 0.790248 3.18415 0.820382C3.39509 0.890694 3.61607 1.38288 3.71652 1.58377C4.03795 2.15632 4.34933 2.73891 4.6808 3.30141C4.84152 3.56257 5.14286 3.884 5.14286 4.19538C5.14286 4.80811 3.32478 5.70208 3.32478 6.24449C3.32478 6.51569 3.57589 6.86726 3.71652 7.10833C4.73103 8.93645 5.99665 10.2021 7.82478 11.2166C8.06585 11.3572 8.41741 11.6083 8.68862 11.6083C9.23103 11.6083 10.125 9.79025 10.7377 9.79025C11.0491 9.79025 11.3705 10.0916 11.6317 10.2523C12.1942 10.5838 12.7768 10.8952 13.3493 11.2166C13.5502 11.317 14.0424 11.538 14.1127 11.749C14.1429 11.8193 14.1429 11.8896 14.1429 11.9599Z" fill="#8695AD"/>
</svg>
