<svg width="12" height="12" viewBox="0 0 12 12" fill="none" xmlns="http://www.w3.org/2000/svg">
<path d="M11.7857 9.52232C11.7857 9.82366 11.6518 10.4096 11.5262 10.6858C11.3504 11.096 10.8817 11.3638 10.505 11.5731C10.0112 11.841 9.50893 12 8.9481 12C8.16964 12 7.46652 11.6819 6.75502 11.4224C6.24442 11.2383 5.75056 11.0123 5.29018 10.7277C3.86719 9.84877 2.15123 8.13281 1.27232 6.70982C0.987723 6.24944 0.761719 5.75558 0.577567 5.24498C0.31808 4.53348 0 3.83036 0 3.0519C0 2.49107 0.15904 1.98884 0.426897 1.49498C0.636161 1.1183 0.904018 0.649553 1.31417 0.473772C1.5904 0.348214 2.17634 0.214285 2.47768 0.214285C2.53627 0.214285 2.59487 0.214285 2.65346 0.239397C2.82924 0.297991 3.01339 0.708147 3.0971 0.875558C3.36496 1.35268 3.62444 1.83817 3.90067 2.30692C4.0346 2.52455 4.28571 2.79241 4.28571 3.0519C4.28571 3.5625 2.77065 4.30748 2.77065 4.75949C2.77065 4.98549 2.97991 5.27846 3.0971 5.47935C3.94252 7.00279 4.99721 8.05748 6.52065 8.9029C6.72154 9.02009 7.01451 9.22935 7.24051 9.22935C7.69252 9.22935 8.4375 7.71429 8.9481 7.71429C9.20759 7.71429 9.47545 7.9654 9.69308 8.09933C10.1618 8.37556 10.6473 8.63504 11.1244 8.9029C11.2919 8.98661 11.702 9.17076 11.7606 9.34654C11.7857 9.40513 11.7857 9.46373 11.7857 9.52232Z" fill="#AE271E"/>
</svg>
