<svg width="13" height="15" viewBox="0 0 13 15" fill="none" xmlns="http://www.w3.org/2000/svg">
<path d="M6.57229 13.0056C6.53408 13.0435 6.49816 13.0791 6.4651 13.1119C6.43205 13.0791 6.39614 13.0435 6.35794 13.0056L6.34072 12.9886C6.17155 12.821 5.94945 12.601 5.69073 12.3379C5.15511 11.7932 4.46727 11.0685 3.78912 10.2647C3.10851 9.45808 2.45157 8.58809 1.96847 7.75304C1.4742 6.8987 1.21509 6.17026 1.21509 5.62483C1.21509 2.98248 3.52444 0.75 6.46483 0.75C9.40538 0.75 11.7151 2.98256 11.7151 5.62483C11.7151 6.17026 11.456 6.8987 10.9617 7.75305C10.4786 8.58809 9.8217 9.45808 9.1411 10.2647C8.46297 11.0685 7.77513 11.7932 7.2395 12.3379C6.98051 12.6013 6.75821 12.8215 6.58896 12.9891L6.57229 13.0056ZM6.94701 13.6676C6.94705 13.6676 6.9471 13.6677 6.94714 13.6677L6.94701 13.6676ZM9.36409 5.62483C9.36409 4.05454 8.01804 2.86002 6.46483 2.86002C4.91242 2.86002 3.56556 4.0544 3.56556 5.62483C3.56556 7.19455 4.91233 8.38963 6.46483 8.38963C8.01813 8.38963 9.36409 7.19441 9.36409 5.62483Z" stroke="#AE271E" stroke-width="1.5"/>
</svg>
