<svg width="66" height="47" viewBox="0 0 66 47" fill="none" xmlns="http://www.w3.org/2000/svg">
<path d="M58.8231 1.81071C61.65 2.57182 63.879 4.80079 64.6401 7.62778C66.0536 12.7925 65.9993 23.5568 65.9993 23.5568C65.9993 23.5568 65.9993 34.2667 64.6401 39.4314C63.879 42.2584 61.65 44.4873 58.8231 45.2484C53.6584 46.6076 32.9996 46.6076 32.9996 46.6076C32.9996 46.6076 12.3952 46.6076 7.1762 45.1941C4.34921 44.433 2.12024 42.204 1.35913 39.377C0 34.2667 0 23.5024 0 23.5024C0 23.5024 0 12.7925 1.35913 7.62778C2.12024 4.80079 4.40357 2.51746 7.1762 1.75634C12.3409 0.397217 32.9996 0.397217 32.9996 0.397217C32.9996 0.397217 53.6584 0.397217 58.8231 1.81071Z" fill="#FF0000"/>
<path d="M26.4219 33.3968L43.6013 23.5024L26.4219 13.6079V33.3968Z" fill="white"/>
</svg>
