<svg width="119" height="119" viewBox="0 0 119 119" fill="none" xmlns="http://www.w3.org/2000/svg">
<rect opacity="0.05" x="1" y="1" width="117" height="117" rx="58.5" fill="url(#paint0_linear_1906_10656)" stroke="#FE1F3D" stroke-width="2"/>
<path d="M45.3281 73.5362C44.5458 73.5362 43.9109 74.1711 43.9109 74.9534C43.9109 75.7357 44.5458 76.3706 45.3281 76.3706C46.1104 76.3706 46.7453 75.7357 46.7453 74.9534C46.7453 74.1711 46.1104 73.5362 45.3281 73.5362Z" fill="#AE271E" stroke="#AE271E" stroke-width="0.1"/>
<path d="M85.543 48.9773L93.5997 40.9206C93.9386 40.5817 94.0752 40.09 93.96 39.6249C93.8447 39.1596 93.4942 38.7889 93.0362 38.6475L73.417 32.5922C71.6484 26.9073 66.3919 23.0009 60.3671 23.0009C54.7666 23.0009 49.7577 26.414 47.6847 31.5629L24.9601 38.6487C24.5033 38.7912 24.1541 39.1622 24.0397 39.6269C23.9253 40.0915 24.062 40.5823 24.4004 40.9207L32.669 49.1893L27.454 57.8812C27.2406 58.2368 27.2002 58.6701 27.3441 59.0591C27.4879 59.448 27.8006 59.7506 28.194 59.8817L35.7577 62.4028V83.4304C35.7577 84.0002 36.1113 84.5103 36.6449 84.7105C41.2697 86.4446 58.4532 92.8893 58.5455 92.922C58.8167 93.0175 59.1223 93.0305 59.4202 92.9341C59.4241 92.9328 59.4283 92.9319 59.4322 92.9306L84.0416 84.7275C84.5998 84.5414 84.9765 84.0188 84.9765 83.4304V61.8398L93.0426 59.305C93.4987 59.1617 93.8468 58.7907 93.9607 58.3264C94.0744 57.8621 93.9376 57.3721 93.5996 57.034L85.543 48.9773ZM74.039 36.6727C74.039 36.3253 74.0243 35.9787 73.9982 35.6333L90.0619 40.5914L83.24 47.4131L72.0936 43.698C73.3558 41.5883 74.039 39.1539 74.039 36.6727ZM50.0212 33.1142C51.5389 28.7007 55.6966 25.7352 60.3671 25.7352C65.3985 25.7352 69.7623 29.1384 70.9789 34.0111C71.1951 34.8769 71.3046 35.7724 71.3046 36.6727C71.3046 39.2121 70.4619 41.5923 68.8672 43.5568C66.7785 46.1328 63.6803 47.6102 60.3671 47.6102C56.7856 47.6102 53.4263 45.8523 51.3802 42.9066C50.1042 41.0737 49.4296 38.9179 49.4296 36.6727C49.4296 35.4517 49.6285 34.2544 50.0212 33.1142ZM27.9326 40.586L46.8408 34.6902C46.746 35.3434 46.6952 36.0051 46.6952 36.6726C46.6952 38.8739 47.2167 41.006 48.2106 42.9298L34.7598 47.4131L27.9326 40.586ZM30.6756 57.8265L34.9987 50.6212L56.9506 57.9385L52.6277 65.1439C50.2837 64.3625 33.1784 58.6607 30.6756 57.8265ZM57.6327 89.6608L38.4921 82.4831V63.3143C53.5517 68.3075 52.8163 68.1551 53.2356 68.1551C53.7056 68.1551 54.1557 67.9119 54.4082 67.4912L57.6327 62.1166V89.6608ZM58.9999 55.7394L38.7141 48.9776L49.7602 45.2957C52.3455 48.474 56.2375 50.3446 60.3671 50.3446C64.1873 50.3446 67.7777 48.7725 70.3601 46.0026L79.2857 48.9774L58.9999 55.7394ZM82.2421 82.4451L60.3671 89.7367V61.0777L65.2139 67.1357C65.5665 67.5764 66.1534 67.7549 66.6914 67.5859L82.2421 62.6992V82.4451V82.4451ZM66.7644 64.6969L61.2924 57.8574L83.24 50.5416L90.071 57.3726L66.7644 64.6969Z" fill="#AE271E"/>
<path d="M54.0113 76.6209L50.9707 75.4807C50.2637 75.2157 49.4757 75.5738 49.2105 76.2807C48.9454 76.9878 49.3036 77.7759 50.0105 78.041L53.0512 79.1812C53.7596 79.4467 54.5467 79.0869 54.8114 78.3811C55.0765 77.6742 54.7183 76.886 54.0113 76.6209Z" fill="#AE271E"/>
<path d="M54.0118 82.4614L45.8087 79.3853C45.1017 79.1202 44.3136 79.4784 44.0484 80.1853C43.7832 80.8923 44.1415 81.6805 44.8485 81.9456L53.0516 85.0218C53.2098 85.0811 53.3719 85.1093 53.5315 85.1093C54.0851 85.1093 54.606 84.7706 54.8119 84.2217C55.0771 83.5146 54.7189 82.7265 54.0118 82.4614Z" fill="#AE271E"/>
<path d="M68.1697 31.6037C67.6358 31.0697 66.7701 31.0698 66.2361 31.6037L58.9997 38.8402L57.232 37.0726C56.6981 36.5387 55.8324 36.5387 55.2984 37.0726C54.7644 37.6065 54.7645 38.4722 55.2984 39.0062L58.0329 41.7405C58.5668 42.2743 59.4325 42.2743 59.9665 41.7405L68.1697 33.5373C68.7036 33.0034 68.7036 32.1377 68.1697 31.6037Z" fill="#AE271E"/>
<defs>
<linearGradient id="paint0_linear_1906_10656" x1="59.5" y1="0" x2="59.5" y2="119" gradientUnits="userSpaceOnUse">
<stop stop-color="#242538"/>
<stop offset="1" stop-color="#242538" stop-opacity="0.1"/>
</linearGradient>
</defs>
</svg>
