<svg width="119" height="119" viewBox="0 0 119 119" fill="none" xmlns="http://www.w3.org/2000/svg">
<rect opacity="0.05" x="1" y="1" width="117" height="117" rx="58.5" fill="url(#paint0_linear_1906_10644)" stroke="#FE1F3D" stroke-width="2"/>
<path d="M31.1862 35.4121L35.121 42.2976C35.2538 42.5303 35.4759 42.6986 35.7357 42.7638L39.4067 43.6815L51.9974 56.2722L53.3886 54.8815L40.6008 42.0941C40.475 41.9678 40.3172 41.8784 40.1444 41.8351L36.617 40.9501L33.2669 35.0843L36.1391 32.2121L42.0074 35.5654L42.8928 39.0928C42.9357 39.266 43.0255 39.4242 43.1513 39.55L55.9391 52.3378L57.3299 50.9466L44.7392 38.3559L43.8214 34.6869C43.7563 34.4267 43.588 34.2042 43.3553 34.0711L36.4693 30.1366C36.0853 29.9181 35.6022 29.9829 35.289 30.2948L31.3545 34.2297C31.0381 34.5409 30.9693 35.0248 31.1862 35.4121V35.4121Z" fill="#AE271E" stroke="#AE271E" stroke-width="0.5"/>
<path d="M72.0823 49.3864L50.442 71.0271L49.0508 69.6359L70.6915 47.9956L72.0823 49.3864Z" fill="#AE271E" stroke="#AE271E" stroke-width="0.5"/>
<path d="M46.6543 71.7928C46.4762 71.4966 46.1565 71.3157 45.811 71.3157H39.9091C39.564 71.3157 39.2439 71.4966 39.0662 71.7928L36.1151 76.7109C35.9278 77.0225 35.9278 77.4121 36.1151 77.7241L39.0662 82.6423C39.2439 82.9381 39.564 83.1193 39.9091 83.1193H45.811C46.1565 83.1193 46.4762 82.9381 46.6543 82.6423L49.605 77.7241C49.7923 77.4121 49.7923 77.0225 49.605 76.7109L46.6543 71.7928ZM45.2546 81.1519H40.4659L38.1052 77.2175L40.4659 73.2827H45.2546L47.6153 77.2175L45.2546 81.1519Z" fill="#AE271E" stroke="#AE271E" stroke-width="0.5"/>
<path d="M78.2722 53.6098C84.7688 53.6316 90.0536 48.3825 90.0754 41.8858C90.0787 40.8968 89.9573 39.9119 89.7141 38.9533C89.583 38.426 89.0492 38.1051 88.522 38.2362C88.3488 38.2795 88.191 38.369 88.0647 38.4948L81.9415 44.614L77.0833 42.9949L75.4631 38.1379L81.5863 32.0135C81.9703 31.6291 81.9699 31.0063 81.5855 30.6223C81.4588 30.4957 81.2994 30.4058 81.125 30.3629C74.8245 28.7674 68.4242 32.5812 66.8286 38.8813C66.5862 39.8371 66.4653 40.8195 66.4685 41.8057C66.4709 42.5802 66.5506 43.3523 66.7076 44.1106L45.1652 65.6526C44.4069 65.496 43.6348 65.4163 42.8607 65.4134C36.3414 65.4134 31.0566 70.6982 31.0566 77.2175C31.0566 83.7365 36.3414 89.0212 42.8607 89.0212C49.3797 89.0212 54.6644 83.7365 54.6644 77.2175C54.662 76.443 54.5819 75.6709 54.4253 74.9126L59.5825 69.7554L61.8381 72.0109C62.2225 72.3949 62.8448 72.3949 63.2293 72.0109L63.7209 71.5188C64.1523 71.0903 64.8495 71.0903 65.2808 71.5188C65.7118 71.9486 65.7126 72.6462 65.2829 73.0771C65.2825 73.0775 65.2816 73.0783 65.2808 73.0792L64.7892 73.5708C64.4052 73.9548 64.4052 74.5776 64.7892 74.9616L76.5233 86.6957C79.6095 89.8103 84.6361 89.8329 87.7507 86.7467C90.8649 83.6604 90.8876 78.6334 87.8013 75.5192C87.7847 75.5022 87.7677 75.4852 87.7507 75.4682L76.0166 63.7345C75.6326 63.3505 75.0099 63.3505 74.6259 63.7345L74.1342 64.2262C73.7024 64.6551 73.0056 64.6551 72.5739 64.2262C72.1433 63.7965 72.1421 63.0988 72.5718 62.6683C72.5727 62.6675 72.5735 62.6671 72.5739 62.6663L73.0659 62.1742C73.4499 61.7902 73.4499 61.1674 73.0659 60.7834L70.8104 58.5279L75.9677 53.3706C76.726 53.5272 77.4981 53.6073 78.2722 53.6098V53.6098ZM82.137 87.0542C81.4224 87.053 80.7138 86.9239 80.0449 86.6726L87.7273 78.9899C88.8866 82.0737 87.3266 85.5133 84.2428 86.6726C83.5699 86.9255 82.8565 87.055 82.137 87.0542ZM70.9933 61.4887C69.904 62.7881 70.0747 64.7247 71.3741 65.8136C72.516 66.7706 74.1803 66.7698 75.321 65.8108L86.3599 76.8594C86.4797 76.9796 86.5918 77.1062 86.7002 77.2349L78.29 85.6452C78.1609 85.5372 78.0342 85.4251 77.9141 85.3049L66.8667 74.2567C67.956 72.9574 67.7852 71.0207 66.4859 69.9318C65.344 68.9744 63.6792 68.9756 62.5385 69.9342L60.9648 68.3605L69.4192 59.9187L70.9933 61.4887ZM74.9654 51.5954L52.6509 73.9055C52.406 74.1499 52.3077 74.5047 52.3911 74.8402C53.7406 80.1399 50.5382 85.5303 45.2381 86.8794C39.9383 88.2289 34.548 85.0265 33.1985 79.7264C31.8494 74.4266 35.0518 69.0363 40.3519 67.6868C41.9551 67.2789 43.6348 67.2789 45.2381 67.6868C45.5735 67.7689 45.9276 67.6706 46.1728 67.4274L68.482 45.1169C68.7264 44.8725 68.8248 44.5177 68.7406 44.1826C67.4004 38.9448 70.5599 33.6123 75.7977 32.2717C76.7875 32.0188 77.8113 31.9217 78.831 31.9852L73.6421 37.1761C73.3787 37.4391 73.2865 37.8288 73.4042 38.182L75.3712 44.0843C75.4696 44.3776 75.7002 44.6083 75.994 44.7058L81.8962 46.6732C82.2491 46.791 82.6388 46.6991 82.9022 46.4361L88.091 41.2473C88.1028 41.435 88.1088 41.6208 88.1088 41.8057C88.1364 47.2106 83.7774 51.6144 78.3725 51.6423C77.5369 51.6464 76.7041 51.5436 75.8948 51.3364C75.5594 51.2527 75.2045 51.3506 74.9601 51.595H74.9654V51.5954Z" fill="#AE271E" stroke="#AE271E" stroke-width="0.5"/>
<path d="M81.9198 79.4727L80.5286 80.8639L70.6924 71.0277L72.0832 69.6365L81.9198 79.4727Z" fill="#AE271E" stroke="#AE271E" stroke-width="0.5"/>
<defs>
<linearGradient id="paint0_linear_1906_10644" x1="59.5" y1="0" x2="59.5" y2="119" gradientUnits="userSpaceOnUse">
<stop stop-color="#242538"/>
<stop offset="1" stop-color="#242538" stop-opacity="0.1"/>
</linearGradient>
</defs>
</svg>
