<svg width="119" height="119" viewBox="0 0 119 119" fill="none" xmlns="http://www.w3.org/2000/svg">
<rect opacity="0.05" x="1" y="1" width="117" height="117" rx="58.5" fill="url(#paint0_linear_1906_10678)" stroke="#FE1F3D" stroke-width="2"/>
<path d="M93.335 54.4408C91.0718 53.137 88.262 53.1374 86.002 54.442C85.9481 54.4732 85.895 54.5056 85.842 54.538C86.6036 50.4063 86.9212 45.8693 86.7904 40.9871C88.8622 40.5899 90.699 39.3101 91.7722 37.4513C93.077 35.1912 93.0774 32.3814 91.7732 30.1181C91.5361 29.7067 91.0973 29.4531 90.6225 29.4531C90.6221 29.4531 90.6217 29.4531 90.6214 29.4531C88.0092 29.4553 85.5761 30.8606 84.2712 33.1205C83.0241 35.2802 82.9694 37.9419 84.1053 40.1492C84.1415 41.0943 84.1605 42.0174 84.163 42.9186C82.7906 41.4321 80.8366 40.5515 78.77 40.5496C78.7696 40.5496 78.7692 40.5496 78.7688 40.5496C78.294 40.5496 77.855 40.8032 77.618 41.2148C76.314 43.478 76.3144 46.2878 77.619 48.5478C78.8506 50.6809 81.0876 52.0519 83.5313 52.201C82.8706 56.6543 81.7245 60.4281 80.2494 63.6548C79.6916 61.97 78.5321 60.5102 76.9554 59.5979C76.5439 59.3601 76.0366 59.3601 75.6251 59.5979C73.3641 60.906 71.9595 63.3397 71.9595 65.949C71.9595 68.292 73.0922 70.4926 74.96 71.8646C70.359 77.1216 64.8296 80.1434 60.3372 82.5983C60.2235 82.6605 60.1132 82.7209 60.0007 82.7824C59.8892 82.7214 59.777 82.6601 59.6641 82.5983C55.1714 80.1434 49.6416 77.1214 45.0403 71.8642C46.9078 70.4922 48.0404 68.2918 48.0404 65.949C48.0404 63.3397 46.6358 60.9059 44.3748 59.5979C43.9633 59.3601 43.4561 59.3601 43.0447 59.5979C41.468 60.5101 40.3087 61.9697 39.7508 63.6543C38.2755 60.4277 37.1296 56.654 36.4687 52.201C38.9125 52.0518 41.1494 50.6807 42.3809 48.5478C43.6856 46.288 43.686 43.478 42.3819 41.2148C42.1449 40.8032 41.706 40.5496 41.2311 40.5496C41.2307 40.5496 41.2303 40.5496 41.2299 40.5496C39.1632 40.5515 37.2091 41.4322 35.8368 42.9188C35.8392 42.0174 35.8582 41.0944 35.8944 40.1493C37.0302 37.9421 36.9757 35.2803 35.7287 33.1205C34.4241 30.8604 31.9908 29.4551 29.3788 29.453C29.3784 29.453 29.3781 29.453 29.3777 29.453C28.9029 29.453 28.4641 29.7065 28.2269 30.118C26.9228 32.3813 26.9232 35.1912 28.2279 37.4511C29.3012 39.31 31.1381 40.5899 33.2097 40.987C33.0788 45.8693 33.3966 50.4063 34.1583 54.538C34.1052 54.5055 34.0522 54.4731 33.9981 54.4419C31.7382 53.137 28.9284 53.1368 26.6651 54.4407C26.2533 54.678 25.9996 55.1173 26 55.5927C26.0023 58.2048 27.4076 60.6381 29.6674 61.9429C30.7976 62.5955 32.0653 62.9218 33.3337 62.9218C34.3421 62.9218 35.3508 62.7146 36.2907 62.302C37.5993 65.7683 39.3303 68.9252 41.4597 71.7195C42.2555 72.7638 43.0837 73.7313 43.9341 74.6322C41.3915 74.6938 39.0374 76.0849 37.759 78.2949C37.521 78.7064 37.521 79.2134 37.759 79.6249C39.0669 81.8859 41.5006 83.2907 44.1101 83.2907C46.5647 83.2907 48.8636 82.0475 50.2164 80.0182C52.6299 81.7152 55.041 83.0892 57.2668 84.3135C57.2618 84.3164 57.2564 84.3193 57.2515 84.3222C56.6187 84.6932 56.4064 85.5069 56.7774 86.1398C57.0247 86.5614 57.4684 86.7964 57.9244 86.7964C58.1525 86.7964 58.3838 86.7376 58.5948 86.6138C59.0418 86.3517 59.5121 86.0857 60.0006 85.8141C62.5606 87.2384 64.6707 88.5426 65.6287 89.9617C65.8853 90.3418 66.304 90.5469 66.7306 90.5469C66.9863 90.5469 67.2448 90.4732 67.4725 90.3194C68.0805 89.909 68.2407 89.0836 67.8302 88.4755C66.7634 86.8952 64.99 85.6319 62.7355 84.3129C64.9608 83.0889 67.3712 81.7154 69.784 80.0187C71.1368 82.0478 73.4353 83.2905 75.8899 83.2905C78.4996 83.2905 80.9332 81.8859 82.2411 79.6248C82.4791 79.2133 82.4791 78.7062 82.2411 78.2948C80.9627 76.0849 78.6092 74.694 76.0669 74.6321C76.9171 73.7312 77.7452 72.7638 78.5409 71.7195C80.6703 68.9252 82.4011 65.7683 83.7096 62.3019C84.6495 62.7145 85.6579 62.9216 86.6664 62.9216C87.9346 62.9216 89.2026 62.5952 90.3327 61.9426C92.5928 60.6378 93.998 58.2046 94 55.5924C94.0006 55.1173 93.7469 54.6781 93.335 54.4408ZM76.2902 62.3636C77.3385 63.2448 77.9646 64.5578 77.9646 65.9489C77.9646 67.34 77.3384 68.6531 76.2902 69.5343C75.242 68.6531 74.6159 67.3401 74.6159 65.9489C74.6159 64.5577 75.2421 63.2448 76.2902 62.3636ZM43.7098 62.3636C44.7581 63.2448 45.3842 64.5578 45.3842 65.9489C45.3842 67.3402 44.758 68.6531 43.7098 69.5343C42.6615 68.6531 42.0354 67.3401 42.0354 65.9489C42.0354 64.5577 42.6616 63.2448 43.7098 62.3636ZM37.1804 45.5451C37.876 44.3403 39.0748 43.5163 40.4232 43.2774C40.8904 44.5644 40.7762 46.0146 40.0807 47.2195C39.385 48.4244 38.1862 49.2484 36.8379 49.4873C36.3706 48.2001 36.4848 46.7499 37.1804 45.5451ZM30.5283 36.123C29.8327 34.9182 29.7185 33.4679 30.1857 32.1807C31.534 32.4196 32.7328 33.2436 33.4285 34.4485C34.124 35.6532 34.2382 37.1036 33.771 38.3908C32.4228 38.1518 31.2239 37.3279 30.5283 36.123ZM30.9954 59.6425C29.7905 58.947 28.9665 57.7481 28.7276 56.3998C30.0147 55.9324 31.4649 56.0466 32.6697 56.7423C33.8746 57.438 34.6986 58.6369 34.9375 59.9852C33.6505 60.452 32.2004 60.3382 30.9954 59.6425ZM44.1101 80.6344C42.7189 80.6344 41.4059 80.0082 40.5248 78.96C41.4059 77.9117 42.7189 77.2857 44.1101 77.2857C45.5014 77.2857 46.8144 77.9119 47.6955 78.96C46.8144 80.0082 45.5014 80.6344 44.1101 80.6344ZM86.5715 34.4485C87.2671 33.2436 88.466 32.4196 89.8143 32.1807C90.2815 33.4678 90.1673 34.9181 89.4718 36.123C88.7761 37.3279 87.5772 38.1518 86.229 38.3908C85.7618 37.1036 85.876 35.6534 86.5715 34.4485ZM83.1621 49.4873C81.8139 49.2484 80.6149 48.4244 79.9193 47.2195C79.2238 46.0148 79.1096 44.5646 79.577 43.2774C80.9251 43.5163 82.124 44.3403 82.8196 45.5451C83.5153 46.7499 83.6295 48.2001 83.1621 49.4873ZM79.4752 78.96C78.5941 80.0083 77.2812 80.6344 75.8899 80.6344C74.4987 80.6344 73.1857 80.0082 72.3047 78.96C73.1857 77.9117 74.4987 77.2857 75.8899 77.2857C77.2812 77.2857 78.5941 77.9117 79.4752 78.96ZM89.0047 59.6425C87.7999 60.3382 86.3496 60.4523 85.0625 59.9852C85.3015 58.6369 86.1254 57.4379 87.3302 56.7423C88.5351 56.0469 89.985 55.9326 91.2725 56.3998C91.0335 57.7481 90.2096 58.9469 89.0047 59.6425Z" fill="#AE271E"/>
<path d="M58.2054 68.4826C58.6621 69.0003 59.3149 69.2977 59.9962 69.2982H59.9982C60.6766 69.2982 61.3273 69.0043 61.7848 68.4914C64.5338 65.4598 67.2849 62.298 69.9451 59.2407C71.2699 57.7182 72.6396 56.144 73.9854 54.6131C74.7616 53.7334 74.8208 52.4215 74.1332 51.4744L69.5334 44.5183C69.0822 43.8367 68.3354 43.4294 67.5346 43.4285H52.4631C51.6058 43.4285 50.8137 43.8936 50.3791 44.647L45.8069 51.5614C45.1785 52.5105 45.2633 53.7658 46.0107 54.6113L58.2054 68.4826ZM53.8948 54.2796L56.9292 63.008L49.2558 54.2796H53.8948ZM61.8478 46.0847L63.4054 51.6233H56.5924L58.1499 46.0847H61.8478ZM63.2908 54.2796L59.9989 63.7486L56.707 54.2796H63.2908ZM67.9412 57.4968C66.331 59.3473 64.6876 61.2362 63.0335 63.1087L66.1028 54.2796H70.7456C69.8037 55.3568 68.8615 56.4392 67.9412 57.4968ZM71.0473 51.6233H66.1647L64.6072 46.0847H67.3849L71.0473 51.6233ZM52.6129 46.0847H55.3905L53.833 51.6233H48.9503L52.6129 46.0847Z" fill="#AE271E"/>
<path d="M53.2707 87.8907C52.5371 87.8907 51.9421 88.4855 51.9421 89.2189C51.9421 89.9523 52.5371 90.547 53.2707 90.547C54.0042 90.547 54.5988 89.9523 54.5988 89.2189C54.5988 88.4855 54.0041 87.8907 53.2707 87.8907Z" fill="#AE271E"/>
<defs>
<linearGradient id="paint0_linear_1906_10678" x1="59.5" y1="0" x2="59.5" y2="119" gradientUnits="userSpaceOnUse">
<stop stop-color="#242538"/>
<stop offset="1" stop-color="#242538" stop-opacity="0.1"/>
</linearGradient>
</defs>
</svg>
