<svg width="119" height="119" viewBox="0 0 119 119" fill="none" xmlns="http://www.w3.org/2000/svg">
<rect opacity="0.05" x="1" y="1" width="117" height="117" rx="58.5" fill="url(#paint0_linear_1906_10689)" stroke="#FE1F3D" stroke-width="2"/>
<path opacity="0.9" d="M93.0793 54.7681H90.688L87.1239 56.6434C86.7227 56.4221 86.3055 56.2345 85.8555 56.1217L81.3721 54.9999V54.4901C83.3555 53.1058 84.5657 50.8189 84.5657 48.3829V46.5227C84.5657 42.3885 81.3264 38.9288 77.345 38.8083C77.1429 38.8031 76.9439 38.8104 76.7438 38.8202L77.9062 36.0989L72.2708 30.4651L68.9489 32.6273C67.6867 31.9165 66.3518 31.3631 64.9654 30.9749L64.1449 27.099H56.0346L55.2141 30.9759C53.8277 31.3641 52.4917 31.9175 51.2306 32.6284L47.9086 30.4662L42.278 36.0969L43.4206 38.8202C43.377 38.8182 43.3354 38.8104 43.2917 38.8093C41.2538 38.7501 39.3343 39.4937 37.8762 40.9091C36.416 42.3236 35.6127 44.2218 35.6127 46.2545V48.3829C35.6127 50.8189 36.8219 53.1048 38.8053 54.4891V54.9999L35.8808 55.731L30.5801 52.6397H27.0991V74.6911L37.5686 78.1804H39.6076L39.8622 77.2888L43.0714 79.215C43.1239 80.9599 44.5233 82.364 46.2666 82.4253C46.3279 84.1614 47.7231 85.5566 49.4592 85.6179C49.5205 87.3539 50.9157 88.7491 52.6518 88.8105C52.7152 90.5871 54.1701 92.015 55.9613 92.015C56.6264 92.015 57.2786 91.8077 57.8268 91.4382L58.7694 92.2707C59.3602 92.7908 60.1209 93.0792 60.9108 93.0792H61.1077C62.8786 93.0792 64.3195 91.6476 64.3419 89.8825C66.0935 89.8601 67.5121 88.4415 67.5344 86.6899C69.2871 86.6675 70.7068 85.2469 70.727 83.4942C72.4958 83.4526 73.9238 82.0075 73.9238 80.2288C73.9238 80.1218 73.9186 80.0163 73.9077 79.9098L93.0793 70.3247V54.7681ZM82.4374 46.5227V48.3829C82.4374 50.2718 81.4168 52.0364 79.7737 52.9879L79.2416 53.2955L79.2458 56.6632L84.5626 57.9914L72.8596 64.151V61.2842C72.8596 59.8537 72.2818 58.5437 71.3355 57.5757L74.988 56.6632V53.2929L74.4569 52.9858C72.8149 52.0364 71.7954 50.2718 71.7954 48.3829V46.2545C71.7954 44.8032 72.3691 43.446 73.4119 42.4353C74.4538 41.4251 75.836 40.8806 77.2811 40.9367C80.124 41.0219 82.4374 43.5281 82.4374 46.5227ZM61.6938 63.3144L56.8764 61.7748C54.6809 61.0712 52.3047 60.9662 50.0573 61.464L49.4473 61.5991V61.2842C49.4473 59.8168 50.4423 58.5427 51.8651 58.1862L57.9608 56.6632V53.2929L57.4298 52.9858C55.7877 52.0364 54.7682 50.2718 54.7682 48.3829V46.2545C54.7682 44.8032 55.3419 43.446 56.3848 42.4353C57.4267 41.4251 58.8177 40.8806 60.2539 40.9367C63.0968 41.0219 65.4102 43.5281 65.4102 46.5227V48.3829C65.4102 50.2718 64.3897 52.0364 62.7466 52.9879L62.2145 53.2955L62.2187 56.6632L68.3134 58.1862C69.7361 58.5427 70.7312 59.8168 70.7312 61.2842V65.2719L70.4683 65.4101H69.8161L63.2735 63.5405C62.758 63.3944 62.227 63.3347 61.6938 63.3144V63.3144ZM49.6858 43.0266C51.6842 39.1544 55.7067 36.6768 60.0892 36.6768C64.4302 36.6768 68.4355 39.1211 70.449 42.9409C69.9424 43.9567 69.667 45.0817 69.667 46.2545V48.3829C69.667 50.8189 70.8762 53.1048 72.8596 54.4891V54.9999L68.6028 56.0656L64.345 54.9999V54.4901C66.3284 53.1058 67.5386 50.8189 67.5386 48.3829V46.5227C67.5386 42.3885 64.2992 38.9288 60.3179 38.8083C58.2809 38.7485 56.3604 39.4926 54.9023 40.9081C53.4432 42.3236 52.6398 44.2218 52.6398 46.2545V48.3829C52.6398 50.8189 53.849 53.1048 55.8324 54.4891V54.9999L51.5756 56.0656L47.3178 54.9999V54.4901C49.3012 53.1058 50.5115 50.8189 50.5115 48.3829V46.5227C50.5115 45.2704 50.2101 44.0815 49.6858 43.0266V43.0266ZM44.7914 36.5905L48.1913 33.1906L51.1838 35.1382L51.7565 34.7869C53.1912 33.9077 54.7417 33.2639 56.3645 32.8757L57.0193 32.7188L57.7597 29.2274H62.4197L63.1581 32.7177L63.8129 32.8741C65.4357 33.2628 66.9862 33.9066 68.4209 34.7858L68.9936 35.1371L71.9861 33.1896L75.3819 36.5864L74.1748 39.4126C73.3532 39.766 72.5915 40.2632 71.9284 40.906C71.8848 40.9486 71.8473 40.9944 71.8047 41.038C69.2975 37.0525 64.8651 34.5484 60.0892 34.5484C55.279 34.5484 50.8341 37.0758 48.3332 41.1019C47.6639 40.4015 46.8678 39.834 45.9855 39.4375L44.7914 36.5905ZM40.9337 56.6632V53.2929L40.4026 52.9858C38.7606 52.0364 37.7411 50.2718 37.7411 48.3829V46.2545C37.7411 44.8032 38.3148 43.446 39.3576 42.4353C40.3995 41.4251 41.7848 40.8806 43.2268 40.9367C46.0697 41.0219 48.3831 43.5281 48.3831 46.5227V48.3829C48.3831 50.2718 47.3625 52.0364 45.7194 52.9879L45.1873 53.2955L45.1915 56.6632L48.8429 57.5757C47.8967 58.5437 47.3189 59.8537 47.3189 61.2842V62.0725L43.9995 62.8104L44.0857 62.509L44.1263 60.5422L38.5138 57.268L40.9337 56.6632ZM29.2275 54.7681H30.0033L37.6569 59.2322L33.795 74.6792L29.2275 73.1562V54.7681ZM37.9136 76.0521L35.819 75.3542L39.5707 60.3489L41.9979 61.7644V62.0684L38.003 76.0521H37.9136ZM45.1905 79.1158C45.1905 78.8019 45.3173 78.4943 45.5397 78.2719L47.4103 76.4012C47.6327 76.1788 47.9403 76.0521 48.2542 76.0521C48.912 76.0521 49.4473 76.5873 49.4473 77.2451C49.4473 77.559 49.3205 77.8666 49.0981 78.089L47.2274 79.9596C47.005 80.182 46.6974 80.3088 46.3835 80.3088C45.7257 80.3088 45.1905 79.7736 45.1905 79.1158ZM48.3831 82.3084C48.3831 81.9945 48.5098 81.6869 48.7322 81.4645L50.6029 79.5938C50.8253 79.3714 51.1329 79.2446 51.4468 79.2446C52.1046 79.2446 52.6398 79.7799 52.6398 80.4377C52.6398 80.7516 52.5131 81.0592 52.2907 81.2816L50.42 83.1522C50.1976 83.3746 49.89 83.5014 49.5761 83.5014C48.9183 83.5014 48.3831 82.9662 48.3831 82.3084ZM51.5756 85.501C51.5756 85.1871 51.7024 84.8795 51.9248 84.6571L53.7955 82.7864C54.0179 82.564 54.3255 82.4372 54.6394 82.4372C55.2972 82.4372 55.8324 82.9724 55.8324 83.6303C55.8324 83.9442 55.7056 84.2518 55.4832 84.4742L53.6126 86.3448C53.3902 86.5672 53.0826 86.694 52.7687 86.694C52.1109 86.694 51.5756 86.1588 51.5756 85.501ZM55.9613 89.8866C55.3035 89.8866 54.7682 89.3514 54.7682 88.6935C54.7682 88.3797 54.895 88.0721 55.1174 87.8497L56.9881 85.979C57.2105 85.7566 57.5181 85.6298 57.832 85.6298C58.4898 85.6298 59.025 86.165 59.025 86.8229C59.025 87.1367 58.8982 87.4444 58.6758 87.6668L56.8052 89.5374C56.5828 89.7598 56.2752 89.8866 55.9613 89.8866ZM61.1077 90.9508H60.9108C60.6395 90.9508 60.3797 90.8521 60.1776 90.6728L59.3815 89.9708L60.1807 89.1716C60.466 88.8863 60.6873 88.547 60.851 88.1827L61.8185 88.9882C62.0716 89.1991 62.2176 89.5099 62.2176 89.8409C62.2176 90.453 61.7198 90.9508 61.1077 90.9508V90.9508ZM70.6512 81.373H70.4672C70.2001 81.373 69.9393 81.2785 69.7351 81.107L63.9641 76.2978L62.6006 77.9336L68.2048 82.603C68.4568 82.814 68.6028 83.1247 68.6028 83.4557C68.6028 84.0678 68.105 84.5656 67.4929 84.5656H67.2606C67.0023 84.5656 66.7498 84.4742 66.5508 84.3079L60.7705 79.4915L59.407 81.1272L65.0111 85.7971C65.2642 86.0065 65.4102 86.3173 65.4102 86.6483C65.4102 87.2604 64.9124 87.7582 64.3003 87.7582C63.8919 87.7582 63.4938 87.6132 63.1805 87.3529L60.8053 85.3731C60.282 84.3037 59.2069 83.5581 57.9478 83.5134C57.8865 81.7773 56.4913 80.3821 54.7552 80.3208C54.6939 78.5847 53.2987 77.1895 51.5627 77.1282C51.5003 75.3516 50.0453 73.9237 48.2542 73.9237C47.3797 73.9237 46.5238 74.278 45.9055 74.8964L44.0348 76.7671C43.9231 76.8788 43.8306 77.0056 43.7365 77.1313L40.4676 75.1697L43.3333 65.1399L50.5177 63.5425C52.4024 63.1211 54.3894 63.2126 56.2273 63.8008L57.7951 64.3022L52.4803 66.9596C51.2659 67.5681 50.5115 68.7897 50.5115 70.148V70.3585C50.5115 72.3242 52.1109 73.9237 54.0766 73.9237C54.7225 73.9237 55.358 73.748 55.9104 73.4149L59.8731 71.0387C60.6691 70.5617 61.7375 70.6661 62.4249 71.2845L71.4166 79.3766C71.6572 79.5949 71.7954 79.9046 71.7954 80.2288C71.7954 80.8602 71.2825 81.373 70.6512 81.373V81.373ZM90.9509 69.009L73.0222 77.9742C72.964 77.9123 72.9032 77.8536 72.8393 77.7964L63.8492 69.7043C63.0615 68.9934 62.043 68.6027 60.9819 68.6027C60.2061 68.6027 59.4444 68.8136 58.7772 69.2138L54.8129 71.591C54.5905 71.7251 54.3364 71.7953 54.0766 71.7953C53.2837 71.7953 52.6398 71.1514 52.6398 70.3585V70.148C52.6398 69.5998 52.9443 69.1083 53.4338 68.8635L59.3701 65.8954C60.3859 65.3867 61.592 65.2729 62.6868 65.5878L69.3744 67.4979L70.9941 67.5385L90.9509 57.0347V69.009Z" fill="#AE271E" stroke="#AE271E" stroke-width="0.5"/>
<defs>
<linearGradient id="paint0_linear_1906_10689" x1="59.5" y1="0" x2="59.5" y2="119" gradientUnits="userSpaceOnUse">
<stop stop-color="#242538"/>
<stop offset="1" stop-color="#242538" stop-opacity="0.1"/>
</linearGradient>
</defs>
</svg>
