<svg width="34" height="33" viewBox="0 0 34 33" fill="none" xmlns="http://www.w3.org/2000/svg">
<circle opacity="0.2" cx="17.2587" cy="16.4655" r="16.4655" fill="#8695AD"/>
<path d="M24.9476 13.6001C25.0799 13.9617 24.6653 14.8085 23.6245 16.1934C21.9132 18.4692 21.728 18.2575 23.1393 19.5718C24.4977 20.8331 24.78 21.4418 24.8241 21.5212C24.8241 21.5212 25.3886 22.5091 24.1978 22.5179L21.9397 22.5532C21.4545 22.6502 20.8106 22.2092 20.8106 22.2092C19.9638 21.627 19.17 20.1186 18.5525 20.3127C18.5525 20.3127 17.9174 20.5156 17.935 21.874C17.9439 22.1651 17.8027 22.3238 17.8027 22.3238C17.8027 22.3238 17.644 22.4914 17.3352 22.5179H16.3208C14.0892 22.659 12.1221 20.6038 12.1221 20.6038C12.1221 20.6038 9.96984 18.3809 8.08219 13.9441C7.9587 13.653 8.09101 13.5119 8.09101 13.5119C8.09101 13.5119 8.22332 13.3443 8.5938 13.3443L11.0107 13.3266C11.24 13.3619 11.3988 13.4854 11.3988 13.4854C11.3988 13.4854 11.5399 13.5824 11.6105 13.7677C12.0075 14.7556 12.5191 15.6553 12.5191 15.6553C13.4011 17.4724 14.001 17.7811 14.345 17.5959C14.345 17.5959 14.7948 17.3224 14.6978 15.1261C14.6625 14.3322 14.442 13.9705 14.442 13.9705C14.2391 13.6971 13.8598 13.6177 13.6922 13.5912C13.5599 13.5736 13.7804 13.2561 14.0715 13.1149C14.5037 12.9032 15.2712 12.8944 16.1797 12.9032C16.8942 12.912 17.0971 12.9561 17.3705 13.0179C18.2085 13.2208 17.9262 13.997 17.9262 15.867C17.9262 16.4668 17.8115 17.3048 18.2438 17.5783C18.429 17.7017 18.8877 17.5959 20.0168 15.673C20.0168 15.673 20.546 14.7556 20.9606 13.6883C21.0311 13.4942 21.1811 13.4148 21.1811 13.4148C21.1811 13.4148 21.3222 13.3354 21.5163 13.3619L24.0567 13.3443C24.8241 13.2472 24.9476 13.6001 24.9476 13.6001Z" fill="white"/>
</svg>
