<svg width="56" height="39" viewBox="0 0 56 39" fill="none" xmlns="http://www.w3.org/2000/svg">
<rect width="56" height="39" rx="4" fill="white"/>
<g clip-path="url(#clip0_1901_10290)">
<path d="M23.5125 14.1903L21.7689 25.0224H24.5586L26.3022 14.1903H23.5125ZM19.4215 14.1903L16.7593 21.6454L16.4446 20.0382L16.3766 19.6791C16.0534 18.978 15.3049 17.6443 13.9016 16.5073C13.4848 16.1738 13.0681 15.8832 12.6598 15.6352L15.0753 25.0224H17.9841L22.4238 14.1903H19.4215ZM30.3081 17.1997C30.3081 15.9772 33.0298 16.131 34.2205 16.7979L34.6202 14.4725C34.6202 14.4725 33.3955 14.0023 32.1112 14.0023C30.7249 14.0023 27.4419 14.6179 27.4419 17.5931C27.4419 20.3887 31.3032 20.4314 31.3032 21.8934C31.3032 23.3639 27.8416 23.0988 26.7019 22.1755L26.2852 24.6121C26.2852 24.6121 27.5269 25.2276 29.4321 25.2276C31.3372 25.2276 34.212 24.2273 34.212 21.5172C34.2035 18.6873 30.3081 18.4223 30.3081 17.1997ZM41.6966 14.1903H39.4512C38.4136 14.1903 38.1669 14.994 38.1669 14.994L34.0079 25.0224H36.9167L37.495 23.4152H41.0417L41.3649 25.0224H43.9249L41.6966 14.1903ZM38.303 21.1923L39.7659 17.1399L40.5909 21.1923H38.303Z" fill="#005AB0"/>
<path d="M15.543 15.2079C15.543 15.2079 15.424 14.2333 14.1907 14.2333H9.70847L9.65744 14.4214C9.65744 14.4214 11.8093 14.866 13.876 16.5246C15.8492 18.1148 16.4956 20.0982 16.4956 20.0982L15.543 15.2079Z" fill="#FFAE00"/>
</g>
<defs>
<clipPath id="clip0_1901_10290">
<rect width="34.268" height="11.215" fill="white" transform="translate(9.66443 14)"/>
</clipPath>
</defs>
</svg>
