<svg width="56" height="39" viewBox="0 0 56 39" fill="none" xmlns="http://www.w3.org/2000/svg">
<rect width="56" height="39" rx="4" fill="white"/>
<g clip-path="url(#clip0_1901_10275)">
<path d="M31.0044 16.0909V9C31.0044 9 22.1521 14.3405 21.5138 14.73C20.8755 15.1195 20.1828 16.0487 20.1828 17.3814C20.1828 17.3814 20.2075 25.7629 20.2075 26.4058C20.2075 27.0487 20.8607 27.6963 21.5435 27.6963H35.1361V16.0909H31.0044Z" fill="#FFCC00"/>
<path d="M28.7323 16.1661C28.7175 16.8606 28.0841 17.7053 27.3468 18.0151C26.6096 18.3248 25.996 17.9916 26.0059 17.2971C26.0207 16.5462 26.6541 15.7578 27.3914 15.4481C28.1336 15.143 28.7472 15.4715 28.7323 16.1661Z" fill="#222222"/>
<path d="M31.0036 16.0908H33.0918V23.1817L21.9782 26.4949L31.0036 20.6007V16.0908Z" fill="#F0B200"/>
</g>
<defs>
<clipPath id="clip0_1901_10275">
<rect width="14.9533" height="18.6917" fill="white" transform="translate(20.1791 9)"/>
</clipPath>
</defs>
</svg>
